<svg xmlns="http://www.w3.org/2000/svg"
     viewBox="-120 -120 240 240"
     width="220"
     height="220">

  <g fill="#000">

    <polygon points="0,-95 18,-42 0,-8 -18,-42"/>
    <polygon points="95,0 42,18 8,0 42,-18"/>
    <polygon points="0,95 -18,42 0,8 18,42"/>
    <polygon points="-95,0 -42,-18 -8,0 -42,18"/>

    <polygon points="67,-67 34,-25 15,-15 25,-34"/>
    <polygon points="67,67 25,34 15,15 34,25"/>
    <polygon points="-67,67 -34,25 -15,15 -25,34"/>
    <polygon points="-67,-67 -25,-34 -15,-15 -34,-25"/>

  </g>

</svg>